#define _width 30
#define _height 30
static char _bits[] = {
 0xff,0xff,0xff,0x3f,0x01,0x00,0x00,0x20,0x01,0x00,0x00,0x20,0x01,0x00,0x00,
 0x20,0x01,0x00,0x00,0x20,0x01,0x00,0x80,0x20,0xe1,0x03,0x80,0x20,0x21,0x00,
 0x80,0x20,0x21,0x88,0x9c,0x20,0xe1,0x8b,0xa2,0x20,0x21,0x88,0xbe,0x20,0x21,
 0x88,0x82,0x20,0x21,0xc8,0x82,0x20,0x21,0xf8,0xbc,0x20,0x01,0x00,0x00,0x20,
 0x01,0x00,0x00,0x20,0x01,0x00,0x00,0x20,0x01,0x00,0x00,0x20,0x81,0x07,0x00,
 0x20,0x41,0x00,0x00,0x20,0x41,0x10,0x3d,0x20,0xc1,0x21,0x25,0x20,0x01,0xa6,
 0x0c,0x20,0x01,0xa4,0x30,0x20,0x41,0xc4,0x24,0x20,0xc1,0x43,0x1c,0x20,0x01,
 0x40,0x00,0x20,0x01,0x20,0x00,0x20,0x01,0x00,0x00,0x20,0xff,0xff,0xff,0x3f };
